{
	"patcher" : 	{
		"fileversion" : 1,
		"appversion" : 		{
			"major" : 8,
			"minor" : 6,
			"revision" : 0,
			"architecture" : "x64",
			"modernui" : 1
		}
,
		"classnamespace" : "box",
		"rect" : [ 134.0, 134.0, 1852.0, 939.0 ],
		"bglocked" : 0,
		"openinpresentation" : 1,
		"default_fontsize" : 12.0,
		"default_fontface" : 0,
		"default_fontname" : "Arial",
		"gridonopen" : 1,
		"gridsize" : [ 15.0, 15.0 ],
		"gridsnaponopen" : 2,
		"objectsnaponopen" : 1,
		"statusbarvisible" : 2,
		"toolbarvisible" : 1,
		"lefttoolbarpinned" : 0,
		"toptoolbarpinned" : 0,
		"righttoolbarpinned" : 0,
		"bottomtoolbarpinned" : 0,
		"toolbars_unpinned_last_save" : 0,
		"tallnewobj" : 0,
		"boxanimatetime" : 200,
		"enablehscroll" : 1,
		"enablevscroll" : 1,
		"devicewidth" : 0.0,
		"description" : "",
		"digest" : "",
		"tags" : "",
		"style" : "",
		"subpatcher_template" : "TemplateOutputGridsnap",
		"assistshowspatchername" : 0,
		"boxes" : [ 			{
				"box" : 				{
					"id" : "obj-28",
					"maxclass" : "newobj",
					"numinlets" : 1,
					"numoutlets" : 1,
					"outlettype" : [ "" ],
					"patching_rect" : [ 860.0, 660.0, 89.0, 22.0 ],
					"text" : "prepend model"
				}

			}
, 			{
				"box" : 				{
					"id" : "obj-22",
					"items" : [ "Engl", ",", "JCM", ",", "SLO", ",", "Recto" ],
					"maxclass" : "umenu",
					"numinlets" : 1,
					"numoutlets" : 3,
					"outlettype" : [ "int", "", "" ],
					"parameter_enable" : 0,
					"patching_rect" : [ 860.0, 631.5, 100.0, 22.0 ],
					"presentation" : 1,
					"presentation_rect" : [ 43.263158321380615, 195.0, 100.0, 22.0 ]
				}

			}
, 			{
				"box" : 				{
					"id" : "obj-21",
					"maxclass" : "newobj",
					"numinlets" : 1,
					"numoutlets" : 0,
					"patching_rect" : [ 495.0, 1410.0, 45.0, 22.0 ],
					"text" : "dac~ 3"
				}

			}
, 			{
				"box" : 				{
					"id" : "obj-25",
					"maxclass" : "slider",
					"numinlets" : 1,
					"numoutlets" : 1,
					"outlettype" : [ "" ],
					"parameter_enable" : 0
				}

			}
, 			{
				"box" : 				{
					"id" : "obj-15",
					"maxclass" : "newobj",
					"numinlets" : 6,
					"numoutlets" : 1,
					"outlettype" : [ "" ],
					"patching_rect" : [ 642.0, 554.5, 94.0, 22.0 ],
					"text" : "scale 0. 1. -1. 2."
				}

			}
, 			{
				"box" : 				{
					"id" : "obj-20",
					"maxclass" : "textbutton",
					"mode" : 1,
					"numinlets" : 1,
					"numoutlets" : 3,
					"outlettype" : [ "", "", "int" ],
					"parameter_enable" : 0,
					"patching_rect" : [ 1620.0, 645.0, 100.0, 20.0 ],
					"presentation" : 1,
					"presentation_rect" : [ 590.398257076740265, 152.442481935024261, 48.113209784030914, 48.592652633786201 ],
					"text" : "Bypassed",
					"texton" : "Active"
				}

			}
, 			{
				"box" : 				{
					"id" : "obj-18",
					"maxclass" : "newobj",
					"numinlets" : 1,
					"numoutlets" : 1,
					"outlettype" : [ "" ],
					"patching_rect" : [ 1620.0, 589.0, 70.0, 22.0 ],
					"text" : "loadmess 1"
				}

			}
, 			{
				"box" : 				{
					"id" : "obj-16",
					"maxclass" : "newobj",
					"numinlets" : 1,
					"numoutlets" : 1,
					"outlettype" : [ "" ],
					"patching_rect" : [ 1605.0, 690.0, 94.0, 22.0 ],
					"text" : "prepend bypass"
				}

			}
, 			{
				"box" : 				{
					"id" : "obj-17",
					"maxclass" : "message",
					"numinlets" : 2,
					"numoutlets" : 1,
					"outlettype" : [ "" ],
					"patching_rect" : [ 1485.0, 542.0, 29.5, 22.0 ],
					"text" : "1"
				}

			}
, 			{
				"box" : 				{
					"id" : "obj-14",
					"maxclass" : "newobj",
					"numinlets" : 1,
					"numoutlets" : 1,
					"outlettype" : [ "" ],
					"patching_rect" : [ 1515.0, 589.0, 70.0, 22.0 ],
					"text" : "loadmess 1"
				}

			}
, 			{
				"box" : 				{
					"id" : "obj-10",
					"maxclass" : "newobj",
					"numinlets" : 1,
					"numoutlets" : 1,
					"outlettype" : [ "" ],
					"patching_rect" : [ 1485.0, 691.0, 83.0, 22.0 ],
					"text" : "prepend mute"
				}

			}
, 			{
				"box" : 				{
					"checkedcolor" : [ 1.0, 0.125490196078431, 0.125490196078431, 1.0 ],
					"id" : "obj-5",
					"maxclass" : "toggle",
					"numinlets" : 1,
					"numoutlets" : 1,
					"outlettype" : [ "int" ],
					"parameter_enable" : 0,
					"patching_rect" : [ 1485.0, 631.0, 48.0, 48.0 ],
					"presentation" : 1,
					"presentation_rect" : [ 590.398257076740265, 91.380530118942261, 48.0, 48.0 ],
					"uncheckedcolor" : [ 0.517647058823529, 0.098039215686275, 0.098039215686275, 1.0 ]
				}

			}
, 			{
				"box" : 				{
					"id" : "obj-73",
					"maxclass" : "comment",
					"numinlets" : 1,
					"numoutlets" : 0,
					"patching_rect" : [ 1185.0, 827.5, 150.0, 20.0 ],
					"presentation" : 1,
					"presentation_rect" : [ 299.247791171073914, 161.292040169239044, 135.0, 20.0 ],
					"text" : "IR2 : Mixed IR 7.wav"
				}

			}
, 			{
				"box" : 				{
					"id" : "obj-11",
					"linecount" : 2,
					"maxclass" : "comment",
					"numinlets" : 1,
					"numoutlets" : 0,
					"patching_rect" : [ 1035.0, 827.5, 94.0, 33.0 ],
					"presentation" : 1,
					"presentation_rect" : [ 299.247791171073914, 102.0, 135.0, 20.0 ],
					"text" : "IR1 : Mixed IR 3.wav"
				}

			}
, 			{
				"box" : 				{
					"id" : "obj-71",
					"maxclass" : "newobj",
					"numinlets" : 1,
					"numoutlets" : 1,
					"outlettype" : [ "" ],
					"patching_rect" : [ 1015.944444444444343, 742.0, 96.0, 22.0 ],
					"text" : "prepend irloader"
				}

			}
, 			{
				"box" : 				{
					"id" : "obj-70",
					"maxclass" : "newobj",
					"numinlets" : 1,
					"numoutlets" : 1,
					"outlettype" : [ "" ],
					"patching_rect" : [ 675.0, 765.0, 93.0, 22.0 ],
					"text" : "prepend master"
				}

			}
, 			{
				"box" : 				{
					"id" : "obj-69",
					"maxclass" : "newobj",
					"numinlets" : 1,
					"numoutlets" : 1,
					"outlettype" : [ "" ],
					"patching_rect" : [ 1374.944444444444343, 691.0, 85.0, 22.0 ],
					"text" : "prepend ir_flip"
				}

			}
, 			{
				"box" : 				{
					"id" : "obj-66",
					"maxclass" : "newobj",
					"numinlets" : 1,
					"numoutlets" : 1,
					"outlettype" : [ "" ],
					"patching_rect" : [ 1374.944444444444343, 589.0, 99.0, 22.0 ],
					"text" : "prepend ir_blend"
				}

			}
, 			{
				"box" : 				{
					"id" : "obj-64",
					"maxclass" : "newobj",
					"numinlets" : 1,
					"numoutlets" : 1,
					"outlettype" : [ "" ],
					"patching_rect" : [ 1140.0, 691.0, 99.0, 22.0 ],
					"text" : "prepend ir2_path"
				}

			}
, 			{
				"box" : 				{
					"id" : "obj-63",
					"maxclass" : "newobj",
					"numinlets" : 1,
					"numoutlets" : 1,
					"outlettype" : [ "" ],
					"patching_rect" : [ 1140.0, 589.0, 99.0, 22.0 ],
					"text" : "prepend ir1_path"
				}

			}
, 			{
				"box" : 				{
					"id" : "obj-62",
					"maxclass" : "newobj",
					"numinlets" : 1,
					"numoutlets" : 1,
					"outlettype" : [ "" ],
					"patching_rect" : [ 1015.944444444444343, 589.0, 99.0, 22.0 ],
					"text" : "prepend ir1_load"
				}

			}
, 			{
				"box" : 				{
					"id" : "obj-61",
					"maxclass" : "newobj",
					"numinlets" : 1,
					"numoutlets" : 1,
					"outlettype" : [ "" ],
					"patching_rect" : [ 1015.944444444444343, 691.0, 99.0, 22.0 ],
					"text" : "prepend ir2_load"
				}

			}
, 			{
				"box" : 				{
					"id" : "obj-60",
					"maxclass" : "newobj",
					"numinlets" : 1,
					"numoutlets" : 1,
					"outlettype" : [ "" ],
					"patching_rect" : [ 1255.944444444444343, 691.0, 105.0, 22.0 ],
					"text" : "prepend ir2_delay"
				}

			}
, 			{
				"box" : 				{
					"id" : "obj-59",
					"maxclass" : "newobj",
					"numinlets" : 1,
					"numoutlets" : 1,
					"outlettype" : [ "" ],
					"patching_rect" : [ 1255.944444444444343, 589.0, 105.0, 22.0 ],
					"text" : "prepend ir1_delay"
				}

			}
, 			{
				"box" : 				{
					"id" : "obj-58",
					"maxclass" : "newobj",
					"numinlets" : 1,
					"numoutlets" : 1,
					"outlettype" : [ "" ],
					"patching_rect" : [ 1130.0, 385.5, 79.0, 22.0 ],
					"text" : "prepend pres"
				}

			}
, 			{
				"box" : 				{
					"id" : "obj-57",
					"maxclass" : "newobj",
					"numinlets" : 1,
					"numoutlets" : 1,
					"outlettype" : [ "" ],
					"patching_rect" : [ 1020.0, 385.5, 86.0, 22.0 ],
					"text" : "prepend reson"
				}

			}
, 			{
				"box" : 				{
					"id" : "obj-56",
					"maxclass" : "newobj",
					"numinlets" : 1,
					"numoutlets" : 1,
					"outlettype" : [ "" ],
					"patching_rect" : [ 1020.0, 430.5, 112.0, 22.0 ],
					"text" : "prepend poweramp"
				}

			}
, 			{
				"box" : 				{
					"id" : "obj-54",
					"maxclass" : "newobj",
					"numinlets" : 1,
					"numoutlets" : 1,
					"outlettype" : [ "" ],
					"patching_rect" : [ 665.0, 631.5, 107.0, 22.0 ],
					"text" : "prepend tonestack"
				}

			}
, 			{
				"box" : 				{
					"id" : "obj-53",
					"maxclass" : "newobj",
					"numinlets" : 1,
					"numoutlets" : 1,
					"outlettype" : [ "" ],
					"patching_rect" : [ 860.0, 586.5, 77.0, 22.0 ],
					"text" : "prepend treb"
				}

			}
, 			{
				"box" : 				{
					"id" : "obj-52",
					"maxclass" : "newobj",
					"numinlets" : 1,
					"numoutlets" : 1,
					"outlettype" : [ "" ],
					"patching_rect" : [ 768.0, 586.5, 75.0, 22.0 ],
					"text" : "prepend mid"
				}

			}
, 			{
				"box" : 				{
					"id" : "obj-51",
					"maxclass" : "newobj",
					"numinlets" : 1,
					"numoutlets" : 1,
					"outlettype" : [ "" ],
					"patching_rect" : [ 642.0, 586.5, 74.0, 22.0 ],
					"text" : "prepend low"
				}

			}
, 			{
				"box" : 				{
					"id" : "obj-50",
					"maxclass" : "newobj",
					"numinlets" : 1,
					"numoutlets" : 1,
					"outlettype" : [ "" ],
					"patching_rect" : [ 360.169500112533569, 555.084758996963501, 79.0, 22.0 ],
					"text" : "prepend gate"
				}

			}
, 			{
				"box" : 				{
					"id" : "obj-49",
					"maxclass" : "newobj",
					"numinlets" : 1,
					"numoutlets" : 1,
					"outlettype" : [ "" ],
					"patching_rect" : [ 578.0, 432.5, 97.0, 22.0 ],
					"text" : "prepend preamp"
				}

			}
, 			{
				"box" : 				{
					"id" : "obj-47",
					"maxclass" : "newobj",
					"numinlets" : 1,
					"numoutlets" : 1,
					"outlettype" : [ "" ],
					"patching_rect" : [ 813.0, 387.5, 108.0, 22.0 ],
					"text" : "prepend post_gain"
				}

			}
, 			{
				"box" : 				{
					"id" : "obj-46",
					"maxclass" : "newobj",
					"numinlets" : 1,
					"numoutlets" : 1,
					"outlettype" : [ "" ],
					"patching_rect" : [ 709.0, 387.5, 78.0, 22.0 ],
					"text" : "prepend bias"
				}

			}
, 			{
				"box" : 				{
					"id" : "obj-45",
					"maxclass" : "newobj",
					"numinlets" : 1,
					"numoutlets" : 1,
					"outlettype" : [ "" ],
					"patching_rect" : [ 578.0, 387.5, 105.0, 22.0 ],
					"text" : "prepend n_stages"
				}

			}
, 			{
				"box" : 				{
					"id" : "obj-44",
					"maxclass" : "newobj",
					"numinlets" : 1,
					"numoutlets" : 1,
					"outlettype" : [ "" ],
					"patching_rect" : [ 753.0, 282.5, 79.0, 22.0 ],
					"text" : "prepend filter"
				}

			}
, 			{
				"box" : 				{
					"id" : "obj-43",
					"maxclass" : "newobj",
					"numinlets" : 1,
					"numoutlets" : 1,
					"outlettype" : [ "" ],
					"patching_rect" : [ 606.0, 312.5, 103.0, 22.0 ],
					"text" : "prepend pre_gain"
				}

			}
, 			{
				"box" : 				{
					"id" : "obj-42",
					"maxclass" : "newobj",
					"numinlets" : 1,
					"numoutlets" : 1,
					"outlettype" : [ "" ],
					"patching_rect" : [ 255.084751844406128, 417.79662013053894, 85.0, 22.0 ],
					"text" : "prepend boost"
				}

			}
, 			{
				"box" : 				{
					"id" : "obj-41",
					"maxclass" : "newobj",
					"numinlets" : 1,
					"numoutlets" : 1,
					"outlettype" : [ "" ],
					"patching_rect" : [ 435.593230724334717, 372.881364822387695, 75.0, 22.0 ],
					"text" : "prepend bite"
				}

			}
, 			{
				"box" : 				{
					"id" : "obj-40",
					"maxclass" : "newobj",
					"numinlets" : 1,
					"numoutlets" : 1,
					"outlettype" : [ "" ],
					"patching_rect" : [ 345.762720108032227, 372.881364822387695, 79.0, 22.0 ],
					"text" : "prepend tight"
				}

			}
, 			{
				"box" : 				{
					"id" : "obj-38",
					"maxclass" : "newobj",
					"numinlets" : 1,
					"numoutlets" : 1,
					"outlettype" : [ "" ],
					"patching_rect" : [ 255.084751844406128, 372.881364822387695, 81.0, 22.0 ],
					"text" : "prepend level"
				}

			}
, 			{
				"box" : 				{
					"id" : "obj-83",
					"maxclass" : "live.tab",
					"num_lines_patching" : 1,
					"num_lines_presentation" : 1,
					"numinlets" : 1,
					"numoutlets" : 3,
					"outlettype" : [ "", "", "float" ],
					"parameter_enable" : 1,
					"patching_rect" : [ 578.0, 357.5, 100.0, 20.0 ],
					"presentation" : 1,
					"presentation_rect" : [ 494.999998569488525, 28.815789341926575, 109.473683595657349, 19.736841917037964 ],
					"saved_attribute_attributes" : 					{
						"valueof" : 						{
							"parameter_enum" : [ "1", "2", "3", "4" ],
							"parameter_initial" : [ 3 ],
							"parameter_initial_enable" : 1,
							"parameter_longname" : "live.tab[1]",
							"parameter_mmax" : 3,
							"parameter_shortname" : "live.tab",
							"parameter_type" : 2,
							"parameter_unitstyle" : 9
						}

					}
,
					"varname" : "live.tab"
				}

			}
, 			{
				"box" : 				{
					"id" : "obj-27",
					"maxclass" : "live.dial",
					"numinlets" : 1,
					"numoutlets" : 2,
					"outlettype" : [ "", "float" ],
					"parameter_enable" : 1,
					"patching_rect" : [ 709.0, 327.5, 41.0, 47.0 ],
					"presentation" : 1,
					"presentation_rect" : [ 448.947367429733276, 15.0, 45.0, 47.0 ],
					"saved_attribute_attributes" : 					{
						"textcolor" : 						{
							"expression" : "themecolor.live_meter_bg"
						}
,
						"valueof" : 						{
							"parameter_initial" : [ 0.1 ],
							"parameter_initial_enable" : 1,
							"parameter_longname" : "live.dial[46]",
							"parameter_mmax" : 1.0,
							"parameter_shortname" : "Bias",
							"parameter_type" : 0,
							"parameter_unitstyle" : 1
						}

					}
,
					"textcolor" : [ 0.156862745098039, 0.156862745098039, 0.156862745098039, 1.0 ],
					"varname" : "live.dial[1]"
				}

			}
, 			{
				"box" : 				{
					"id" : "obj-12",
					"maxclass" : "newobj",
					"numinlets" : 1,
					"numoutlets" : 3,
					"outlettype" : [ "signal", "", "" ],
					"patching_rect" : [ 135.0, 690.0, 225.0, 22.0 ],
					"text" : "ampli",
					"varname" : "ampli"
				}

			}
, 			{
				"box" : 				{
					"id" : "obj-65",
					"maxclass" : "button",
					"numinlets" : 1,
					"numoutlets" : 1,
					"outlettype" : [ "bang" ],
					"parameter_enable" : 0,
					"patching_rect" : [ 1015.944444444444343, 649.0, 24.0, 24.0 ],
					"presentation" : 1,
					"presentation_rect" : [ 255.0, 161.292040169239044, 34.0, 34.0 ]
				}

			}
, 			{
				"box" : 				{
					"id" : "obj-55",
					"maxclass" : "button",
					"numinlets" : 1,
					"numoutlets" : 1,
					"outlettype" : [ "bang" ],
					"parameter_enable" : 0,
					"patching_rect" : [ 1015.944444444444343, 549.0, 24.0, 24.0 ],
					"presentation" : 1,
					"presentation_rect" : [ 255.0, 102.0, 34.0, 34.0 ]
				}

			}
, 			{
				"box" : 				{
					"bordercolor" : [ 0.129411764705882, 0.117647058823529, 0.117647058823529, 1.0 ],
					"id" : "obj-68",
					"maxclass" : "dropfile",
					"numinlets" : 1,
					"numoutlets" : 2,
					"outlettype" : [ "", "" ],
					"patching_rect" : [ 1140.0, 639.962962865829468, 33.0, 42.0 ],
					"presentation" : 1,
					"presentation_rect" : [ 248.805309236049652, 153.32743775844574, 201.0, 52.313992857933044 ]
				}

			}
, 			{
				"box" : 				{
					"bordercolor" : [ 0.109803921568627, 0.094117647058824, 0.094117647058824, 1.0 ],
					"id" : "obj-67",
					"maxclass" : "dropfile",
					"numinlets" : 1,
					"numoutlets" : 2,
					"outlettype" : [ "", "" ],
					"patching_rect" : [ 1140.0, 529.0, 33.0, 42.0 ],
					"presentation" : 1,
					"presentation_rect" : [ 250.575220882892609, 93.150441765785217, 199.5, 50.419795751571655 ]
				}

			}
, 			{
				"box" : 				{
					"id" : "obj-166",
					"maxclass" : "live.dial",
					"numinlets" : 1,
					"numoutlets" : 2,
					"outlettype" : [ "", "float" ],
					"parameter_enable" : 1,
					"patching_rect" : [ 675.0, 705.0, 41.0, 47.0 ],
					"presentation" : 1,
					"presentation_rect" : [ 191.929826676845551, 227.350426614284515, 41.0, 47.0 ],
					"saved_attribute_attributes" : 					{
						"textcolor" : 						{
							"expression" : "themecolor.live_meter_bg"
						}
,
						"valueof" : 						{
							"parameter_longname" : "live.dial[64]",
							"parameter_mmax" : 10.0,
							"parameter_mmin" : -20.0,
							"parameter_shortname" : "Master",
							"parameter_type" : 0,
							"parameter_unitstyle" : 4
						}

					}
,
					"textcolor" : [ 0.156862745098039, 0.156862745098039, 0.156862745098039, 1.0 ],
					"varname" : "live.dial[28]"
				}

			}
, 			{
				"box" : 				{
					"id" : "obj-167",
					"maxclass" : "live.dial",
					"numinlets" : 1,
					"numoutlets" : 2,
					"outlettype" : [ "", "float" ],
					"parameter_enable" : 1,
					"patching_rect" : [ 1374.944444444444343, 526.0, 43.0, 53.0 ],
					"presentation" : 1,
					"presentation_rect" : [ 534.646040201187134, 91.380530118942261, 43.0, 53.0 ],
					"saved_attribute_attributes" : 					{
						"textcolor" : 						{
							"expression" : "themecolor.live_meter_bg"
						}
,
						"valueof" : 						{
							"parameter_initial" : [ 0 ],
							"parameter_initial_enable" : 1,
							"parameter_longname" : "live.dial[65]",
							"parameter_mmax" : 1.0,
							"parameter_shortname" : "IR Blend",
							"parameter_type" : 0,
							"parameter_unitstyle" : 1
						}

					}
,
					"textcolor" : [ 0.156862745098039, 0.156862745098039, 0.156862745098039, 1.0 ],
					"triangle" : 1,
					"varname" : "live.dial[29]"
				}

			}
, 			{
				"box" : 				{
					"id" : "obj-163",
					"maxclass" : "toggle",
					"numinlets" : 1,
					"numoutlets" : 1,
					"outlettype" : [ "int" ],
					"parameter_enable" : 0,
					"patching_rect" : [ 1374.944444444444343, 631.0, 48.0, 48.0 ],
					"presentation" : 1,
					"presentation_rect" : [ 534.646040201187134, 153.32743775844574, 48.0, 48.0 ]
				}

			}
, 			{
				"box" : 				{
					"id" : "obj-164",
					"maxclass" : "live.dial",
					"numinlets" : 1,
					"numoutlets" : 2,
					"outlettype" : [ "", "float" ],
					"parameter_enable" : 1,
					"patching_rect" : [ 1255.944444444444343, 631.0, 41.0, 47.0 ],
					"presentation" : 1,
					"presentation_rect" : [ 474.469044208526611, 153.32743775844574, 41.0, 47.0 ],
					"saved_attribute_attributes" : 					{
						"textcolor" : 						{
							"expression" : "themecolor.live_meter_bg"
						}
,
						"valueof" : 						{
							"parameter_longname" : "live.dial[62]",
							"parameter_mmax" : 255.0,
							"parameter_shortname" : "IR2 delay",
							"parameter_type" : 1,
							"parameter_unitstyle" : 0
						}

					}
,
					"textcolor" : [ 0.156862745098039, 0.156862745098039, 0.156862745098039, 1.0 ],
					"varname" : "live.dial[23]"
				}

			}
, 			{
				"box" : 				{
					"id" : "obj-165",
					"maxclass" : "live.dial",
					"numinlets" : 1,
					"numoutlets" : 2,
					"outlettype" : [ "", "float" ],
					"parameter_enable" : 1,
					"patching_rect" : [ 1255.944444444444343, 533.0, 41.0, 47.0 ],
					"presentation" : 1,
					"presentation_rect" : [ 474.469044208526611, 94.035397589206696, 41.0, 47.0 ],
					"saved_attribute_attributes" : 					{
						"textcolor" : 						{
							"expression" : "themecolor.live_meter_bg"
						}
,
						"valueof" : 						{
							"parameter_longname" : "live.dial[63]",
							"parameter_mmax" : 255.0,
							"parameter_shortname" : "IR1 delay",
							"parameter_type" : 1,
							"parameter_unitstyle" : 0
						}

					}
,
					"textcolor" : [ 0.156862745098039, 0.156862745098039, 0.156862745098039, 1.0 ],
					"varname" : "live.dial[24]"
				}

			}
, 			{
				"box" : 				{
					"annotation" : "",
					"id" : "obj-162",
					"maxclass" : "live.dial",
					"numinlets" : 1,
					"numoutlets" : 2,
					"outlettype" : [ "", "float" ],
					"parameter_enable" : 1,
					"patching_rect" : [ 360.169500112533569, 494.915266036987305, 75.0, 47.0 ],
					"presentation" : 1,
					"presentation_rect" : [ 165.552632212638855, 74.868420481681824, 75.0, 47.0 ],
					"prototypename" : "gain",
					"saved_attribute_attributes" : 					{
						"textcolor" : 						{
							"expression" : "themecolor.live_meter_bg"
						}
,
						"valueof" : 						{
							"parameter_initial" : [ -70 ],
							"parameter_initial_enable" : 1,
							"parameter_linknames" : 1,
							"parameter_longname" : "live.dial[38]",
							"parameter_mmax" : -40.0,
							"parameter_mmin" : -90.0,
							"parameter_shortname" : "Gate Thresh",
							"parameter_type" : 0,
							"parameter_units" : "%.1f dB",
							"parameter_unitstyle" : 9
						}

					}
,
					"textcolor" : [ 0.156862745098039, 0.156862745098039, 0.156862745098039, 1.0 ],
					"varname" : "live.dial[38]"
				}

			}
, 			{
				"box" : 				{
					"annotation" : "",
					"id" : "obj-159",
					"maxclass" : "live.dial",
					"numinlets" : 1,
					"numoutlets" : 2,
					"outlettype" : [ "", "float" ],
					"parameter_enable" : 1,
					"patching_rect" : [ 753.0, 225.0, 60.0, 47.0 ],
					"presentation" : 1,
					"presentation_rect" : [ 389.736841678619385, 15.0, 64.078947186470032, 47.0 ],
					"prototypename" : "freq",
					"saved_attribute_attributes" : 					{
						"textcolor" : 						{
							"expression" : "themecolor.live_meter_bg"
						}
,
						"valueof" : 						{
							"parameter_exponent" : 3.333333,
							"parameter_initial" : [ 50 ],
							"parameter_initial_enable" : 1,
							"parameter_linknames" : 1,
							"parameter_longname" : "live.dial[17]",
							"parameter_mmax" : 700.0,
							"parameter_shortname" : "input filter",
							"parameter_type" : 0,
							"parameter_unitstyle" : 3
						}

					}
,
					"textcolor" : [ 0.156862745098039, 0.156862745098039, 0.156862745098039, 1.0 ],
					"varname" : "live.dial[17]"
				}

			}
, 			{
				"box" : 				{
					"id" : "obj-161",
					"maxclass" : "live.dial",
					"numinlets" : 1,
					"numoutlets" : 2,
					"outlettype" : [ "", "float" ],
					"parameter_enable" : 1,
					"patching_rect" : [ 606.0, 252.5, 41.0, 47.0 ],
					"presentation" : 1,
					"presentation_rect" : [ 345.0, 15.0, 45.0, 47.0 ],
					"saved_attribute_attributes" : 					{
						"textcolor" : 						{
							"expression" : "themecolor.live_meter_bg"
						}
,
						"valueof" : 						{
							"parameter_initial" : [ 5.0 ],
							"parameter_initial_enable" : 1,
							"parameter_longname" : "live.dial[37]",
							"parameter_mmax" : 10.0,
							"parameter_shortname" : "Pre gain",
							"parameter_type" : 0,
							"parameter_unitstyle" : 1
						}

					}
,
					"textcolor" : [ 0.156862745098039, 0.156862745098039, 0.156862745098039, 1.0 ],
					"varname" : "live.dial[22]"
				}

			}
, 			{
				"box" : 				{
					"id" : "obj-110",
					"maxclass" : "live.dial",
					"numinlets" : 1,
					"numoutlets" : 2,
					"outlettype" : [ "", "float" ],
					"parameter_enable" : 1,
					"patching_rect" : [ 813.0, 327.5, 41.0, 47.0 ],
					"presentation" : 1,
					"presentation_rect" : [ 146.630680918693542, 227.350426614284515, 41.0, 47.0 ],
					"saved_attribute_attributes" : 					{
						"textcolor" : 						{
							"expression" : "themecolor.live_meter_bg"
						}
,
						"valueof" : 						{
							"parameter_longname" : "live.dial[61]",
							"parameter_mmax" : 40.0,
							"parameter_mmin" : -10.0,
							"parameter_shortname" : "Post gain",
							"parameter_type" : 0,
							"parameter_unitstyle" : 4
						}

					}
,
					"textcolor" : [ 0.156862745098039, 0.156862745098039, 0.156862745098039, 1.0 ],
					"varname" : "live.dial[12]"
				}

			}
, 			{
				"box" : 				{
					"annotation" : "",
					"id" : "obj-111",
					"maxclass" : "live.dial",
					"numinlets" : 1,
					"numoutlets" : 2,
					"outlettype" : [ "", "float" ],
					"parameter_enable" : 1,
					"patching_rect" : [ 1130.0, 327.5, 44.0, 47.0 ],
					"presentation" : 1,
					"presentation_rect" : [ 67.998201489448547, 227.350426614284515, 44.0, 47.0 ],
					"prototypename" : "gain",
					"saved_attribute_attributes" : 					{
						"textcolor" : 						{
							"expression" : "themecolor.live_meter_bg"
						}
,
						"valueof" : 						{
							"parameter_initial" : [ 3 ],
							"parameter_initial_enable" : 1,
							"parameter_linknames" : 1,
							"parameter_longname" : "live.dial[13]",
							"parameter_mmax" : 6.0,
							"parameter_shortname" : "Presence",
							"parameter_type" : 0,
							"parameter_unitstyle" : 4
						}

					}
,
					"textcolor" : [ 0.156862745098039, 0.156862745098039, 0.156862745098039, 1.0 ],
					"varname" : "live.dial[13]"
				}

			}
, 			{
				"box" : 				{
					"annotation" : "",
					"id" : "obj-132",
					"maxclass" : "live.dial",
					"numinlets" : 1,
					"numoutlets" : 2,
					"outlettype" : [ "", "float" ],
					"parameter_enable" : 1,
					"patching_rect" : [ 1020.0, 327.5, 44.0, 47.0 ],
					"presentation" : 1,
					"presentation_rect" : [ 22.699055731296539, 227.350426614284515, 44.0, 47.0 ],
					"prototypename" : "gain",
					"saved_attribute_attributes" : 					{
						"textcolor" : 						{
							"expression" : "themecolor.live_meter_bg"
						}
,
						"valueof" : 						{
							"parameter_initial" : [ 3 ],
							"parameter_initial_enable" : 1,
							"parameter_linknames" : 1,
							"parameter_longname" : "live.dial[14]",
							"parameter_mmax" : 6.0,
							"parameter_shortname" : "Reson",
							"parameter_type" : 0,
							"parameter_unitstyle" : 4
						}

					}
,
					"textcolor" : [ 0.156862745098039, 0.156862745098039, 0.156862745098039, 1.0 ],
					"varname" : "live.dial[14]"
				}

			}
, 			{
				"box" : 				{
					"annotation" : "",
					"id" : "obj-99",
					"maxclass" : "live.dial",
					"numinlets" : 1,
					"numoutlets" : 2,
					"outlettype" : [ "", "float" ],
					"parameter_enable" : 1,
					"patching_rect" : [ 860.0, 524.5, 44.0, 47.0 ],
					"presentation" : 1,
					"presentation_rect" : [ 117.263158321380615, 135.0, 44.0, 47.0 ],
					"prototypename" : "amount",
					"saved_attribute_attributes" : 					{
						"textcolor" : 						{
							"expression" : "themecolor.live_meter_bg"
						}
,
						"valueof" : 						{
							"parameter_initial" : [ 0.5 ],
							"parameter_initial_enable" : 1,
							"parameter_linknames" : 1,
							"parameter_longname" : "live.dial[52]",
							"parameter_mmax" : 1.0,
							"parameter_shortname" : "Trebble",
							"parameter_type" : 0,
							"parameter_unitstyle" : 1
						}

					}
,
					"textcolor" : [ 0.156862745098039, 0.156862745098039, 0.156862745098039, 1.0 ],
					"varname" : "live.dial[52]"
				}

			}
, 			{
				"box" : 				{
					"annotation" : "",
					"id" : "obj-100",
					"maxclass" : "live.dial",
					"numinlets" : 1,
					"numoutlets" : 2,
					"outlettype" : [ "", "float" ],
					"parameter_enable" : 1,
					"patching_rect" : [ 768.0, 524.5, 44.0, 47.0 ],
					"presentation" : 1,
					"presentation_rect" : [ 71.263158321380615, 135.0, 44.0, 47.0 ],
					"prototypename" : "amount",
					"saved_attribute_attributes" : 					{
						"textcolor" : 						{
							"expression" : "themecolor.live_meter_bg"
						}
,
						"valueof" : 						{
							"parameter_initial" : [ 0.5 ],
							"parameter_initial_enable" : 1,
							"parameter_linknames" : 1,
							"parameter_longname" : "live.dial[59]",
							"parameter_mmax" : 1.0,
							"parameter_shortname" : "Mid",
							"parameter_type" : 0,
							"parameter_unitstyle" : 1
						}

					}
,
					"textcolor" : [ 0.156862745098039, 0.156862745098039, 0.156862745098039, 1.0 ],
					"varname" : "live.dial[59]"
				}

			}
, 			{
				"box" : 				{
					"annotation" : "",
					"id" : "obj-109",
					"maxclass" : "live.dial",
					"numinlets" : 1,
					"numoutlets" : 2,
					"outlettype" : [ "", "float" ],
					"parameter_enable" : 1,
					"patching_rect" : [ 642.0, 494.5, 44.0, 47.0 ],
					"presentation" : 1,
					"presentation_rect" : [ 25.263158321380615, 135.0, 44.0, 47.0 ],
					"prototypename" : "amount",
					"saved_attribute_attributes" : 					{
						"textcolor" : 						{
							"expression" : "themecolor.live_meter_bg"
						}
,
						"valueof" : 						{
							"parameter_initial" : [ 0.5 ],
							"parameter_initial_enable" : 1,
							"parameter_linknames" : 1,
							"parameter_longname" : "live.dial[60]",
							"parameter_mmax" : 1.0,
							"parameter_shortname" : "Low",
							"parameter_type" : 0,
							"parameter_unitstyle" : 1
						}

					}
,
					"textcolor" : [ 0.156862745098039, 0.156862745098039, 0.156862745098039, 1.0 ],
					"varname" : "live.dial[60]"
				}

			}
, 			{
				"box" : 				{
					"annotation" : "",
					"id" : "obj-24",
					"maxclass" : "live.dial",
					"numinlets" : 1,
					"numoutlets" : 2,
					"outlettype" : [ "", "float" ],
					"parameter_enable" : 1,
					"patching_rect" : [ 345.762720108032227, 312.711871862411499, 44.0, 47.0 ],
					"presentation" : 1,
					"presentation_rect" : [ 226.736842155456543, 15.0, 44.0, 47.0 ],
					"prototypename" : "amount",
					"saved_attribute_attributes" : 					{
						"textcolor" : 						{
							"expression" : "themecolor.live_meter_bg"
						}
,
						"valueof" : 						{
							"parameter_initial" : [ 0 ],
							"parameter_initial_enable" : 1,
							"parameter_linknames" : 1,
							"parameter_longname" : "live.dial[56]",
							"parameter_mmax" : 750.0,
							"parameter_shortname" : "Tight",
							"parameter_type" : 0,
							"parameter_unitstyle" : 3
						}

					}
,
					"textcolor" : [ 0.156862745098039, 0.156862745098039, 0.156862745098039, 1.0 ],
					"varname" : "live.dial[56]"
				}

			}
, 			{
				"box" : 				{
					"annotation" : "",
					"id" : "obj-26",
					"maxclass" : "live.dial",
					"numinlets" : 1,
					"numoutlets" : 2,
					"outlettype" : [ "", "float" ],
					"parameter_enable" : 1,
					"patching_rect" : [ 435.593230724334717, 312.711871862411499, 44.0, 47.0 ],
					"presentation" : 1,
					"presentation_rect" : [ 272.789473295211792, 15.0, 44.0, 47.0 ],
					"prototypename" : "amount",
					"saved_attribute_attributes" : 					{
						"textcolor" : 						{
							"expression" : "themecolor.live_meter_bg"
						}
,
						"valueof" : 						{
							"parameter_initial" : [ 0 ],
							"parameter_initial_enable" : 1,
							"parameter_linknames" : 1,
							"parameter_longname" : "live.dial[57]",
							"parameter_mmax" : 30.0,
							"parameter_shortname" : "Bite",
							"parameter_type" : 0,
							"parameter_unitstyle" : 4
						}

					}
,
					"textcolor" : [ 0.156862745098039, 0.156862745098039, 0.156862745098039, 1.0 ],
					"varname" : "live.dial[57]"
				}

			}
, 			{
				"box" : 				{
					"annotation" : "",
					"id" : "obj-29",
					"maxclass" : "live.dial",
					"numinlets" : 1,
					"numoutlets" : 2,
					"outlettype" : [ "", "float" ],
					"parameter_enable" : 1,
					"patching_rect" : [ 255.084751844406128, 312.711871862411499, 44.0, 47.0 ],
					"presentation" : 1,
					"presentation_rect" : [ 181.342105746269226, 15.0, 44.0, 47.0 ],
					"prototypename" : "gain",
					"saved_attribute_attributes" : 					{
						"textcolor" : 						{
							"expression" : "themecolor.live_meter_bg"
						}
,
						"valueof" : 						{
							"parameter_initial" : [ 0 ],
							"parameter_initial_enable" : 1,
							"parameter_linknames" : 1,
							"parameter_longname" : "live.dial[58]",
							"parameter_mmax" : 20.0,
							"parameter_shortname" : "Boost",
							"parameter_type" : 0,
							"parameter_unitstyle" : 4
						}

					}
,
					"textcolor" : [ 0.156862745098039, 0.156862745098039, 0.156862745098039, 1.0 ],
					"varname" : "live.dial[58]"
				}

			}
, 			{
				"box" : 				{
					"id" : "obj-9",
					"maxclass" : "newobj",
					"numinlets" : 2,
					"numoutlets" : 1,
					"outlettype" : [ "signal" ],
					"patching_rect" : [ 46.0, 927.0, 37.0, 22.0 ],
					"text" : "*~ 20"
				}

			}
, 			{
				"box" : 				{
					"id" : "obj-13",
					"lastchannelcount" : 0,
					"maxclass" : "live.gain~",
					"numinlets" : 2,
					"numoutlets" : 5,
					"outlettype" : [ "signal", "signal", "", "float", "list" ],
					"parameter_enable" : 1,
					"patching_rect" : [ 600.5, 1125.0, 48.0, 136.0 ],
					"saved_attribute_attributes" : 					{
						"textcolor" : 						{
							"expression" : "themecolor.live_meter_bg"
						}
,
						"valueof" : 						{
							"parameter_initial" : [ 0.0 ],
							"parameter_initial_enable" : 1,
							"parameter_longname" : "live.gain~[1]",
							"parameter_mmax" : 3.0,
							"parameter_mmin" : -70.0,
							"parameter_shortname" : "live.gain~",
							"parameter_type" : 0,
							"parameter_unitstyle" : 4
						}

					}
,
					"textcolor" : [ 0.156862745098039, 0.156862745098039, 0.156862745098039, 1.0 ],
					"varname" : "live.gain~[1]"
				}

			}
, 			{
				"box" : 				{
					"fontface" : 0,
					"fontname" : "Arial",
					"fontsize" : 12.0,
					"id" : "obj-3",
					"maxclass" : "spectrumdraw~",
					"numinlets" : 4,
					"numoutlets" : 1,
					"outlettype" : [ "" ],
					"patching_rect" : [ 45.0, 1017.0, 400.0, 160.0 ],
					"presentation" : 1,
					"presentation_rect" : [ 326.972563087940216, 287.17948704957962, 400.0, 160.0 ]
				}

			}
, 			{
				"box" : 				{
					"basictuning" : 440,
					"clipheight" : 44.0,
					"data" : 					{
						"clips" : [ 							{
								"absolutepath" : "SulphurAeon.wav",
								"filename" : "SulphurAeon.wav",
								"filekind" : "audiofile",
								"id" : "u896000957",
								"selection" : [ 0.0, 1.0 ],
								"loop" : 1,
								"content_state" : 								{
									"loop" : 1
								}

							}
, 							{
								"absolutepath" : "Opeth.wav",
								"filename" : "Opeth.wav",
								"filekind" : "audiofile",
								"id" : "u504000951",
								"selection" : [ 0.0, 1.0 ],
								"loop" : 1,
								"content_state" : 								{
									"loop" : 1
								}

							}
, 							{
								"absolutepath" : "Metallica.wav",
								"filename" : "Metallica.wav",
								"filekind" : "audiofile",
								"id" : "u094000947",
								"selection" : [ 0.0, 1.0 ],
								"loop" : 0,
								"content_state" : 								{

								}

							}
, 							{
								"absolutepath" : "Vektor.wav",
								"filename" : "Vektor.wav",
								"filekind" : "audiofile",
								"id" : "u906000954",
								"selection" : [ 0.0, 1.0 ],
								"loop" : 1,
								"content_state" : 								{
									"loop" : 1
								}

							}
 ]
					}
,
					"followglobaltempo" : 0,
					"formantcorrection" : 0,
					"id" : "obj-1",
					"maxclass" : "playlist~",
					"mode" : "basic",
					"numinlets" : 1,
					"numoutlets" : 5,
					"originallength" : [ 0.0, "ticks" ],
					"originaltempo" : 120.0,
					"outlettype" : [ "signal", "signal", "signal", "", "dictionary" ],
					"parameter_enable" : 0,
					"patching_rect" : [ 15.0, 15.0, 360.0, 180.0 ],
					"pitchcorrection" : 0,
					"quality" : "basic",
					"timestretch" : [ 0 ]
				}

			}
, 			{
				"box" : 				{
					"automatic" : 1,
					"id" : "obj-7",
					"maxclass" : "scope~",
					"numinlets" : 2,
					"numoutlets" : 0,
					"patching_rect" : [ 135.0, 855.0, 285.0, 135.0 ],
					"presentation" : 1,
					"presentation_rect" : [ 25.263158321380615, 300.0, 285.0, 135.0 ]
				}

			}
, 			{
				"box" : 				{
					"bgmode" : 0,
					"border" : 0,
					"clickthrough" : 0,
					"enablehscroll" : 0,
					"enablevscroll" : 0,
					"id" : "obj-19",
					"lockeddragscroll" : 0,
					"lockedsize" : 0,
					"maxclass" : "bpatcher",
					"name" : "guitarInput.maxpat",
					"numinlets" : 0,
					"numoutlets" : 1,
					"offset" : [ 0.0, 0.0 ],
					"outlettype" : [ "signal" ],
					"patching_rect" : [ 510.0, 30.0, 165.0, 120.0 ],
					"presentation" : 1,
					"presentation_rect" : [ -2.5, 0.0, 165.0, 120.0 ],
					"viewvisibility" : 1
				}

			}
, 			{
				"box" : 				{
					"id" : "obj-8",
					"maxclass" : "mc.ezdac~",
					"numinlets" : 1,
					"numoutlets" : 0,
					"patching_rect" : [ 660.5, 1395.0, 60.0, 60.0 ]
				}

			}
, 			{
				"box" : 				{
					"id" : "obj-6",
					"maxclass" : "toggle",
					"numinlets" : 1,
					"numoutlets" : 1,
					"outlettype" : [ "int" ],
					"parameter_enable" : 0,
					"patching_rect" : [ 660.5, 1320.0, 60.0, 60.0 ]
				}

			}
, 			{
				"box" : 				{
					"channels" : 2,
					"id" : "obj-4",
					"lastchannelcount" : 2,
					"maxclass" : "mc.live.gain~",
					"mode" : 1,
					"numinlets" : 1,
					"numoutlets" : 4,
					"outlettype" : [ "multichannelsignal", "", "float", "list" ],
					"parameter_enable" : 1,
					"patching_rect" : [ 600.5, 1320.0, 48.0, 136.0 ],
					"presentation" : 1,
					"presentation_rect" : [ 674.469060301780701, 41.823004007339478, 64.0, 181.0 ],
					"saved_attribute_attributes" : 					{
						"textcolor" : 						{
							"expression" : "themecolor.live_meter_bg"
						}
,
						"valueof" : 						{
							"parameter_longname" : "mc.live.gain~[1]",
							"parameter_mmax" : 0.0,
							"parameter_mmin" : -70.0,
							"parameter_shortname" : "MasterVol",
							"parameter_type" : 0,
							"parameter_unitstyle" : 4
						}

					}
,
					"textcolor" : [ 0.156862745098039, 0.156862745098039, 0.156862745098039, 1.0 ],
					"varname" : "mc.live.gain~"
				}

			}
, 			{
				"box" : 				{
					"id" : "obj-2",
					"maxclass" : "newobj",
					"numinlets" : 3,
					"numoutlets" : 1,
					"outlettype" : [ "multichannelsignal" ],
					"patcher" : 					{
						"fileversion" : 1,
						"appversion" : 						{
							"major" : 8,
							"minor" : 6,
							"revision" : 0,
							"architecture" : "x64",
							"modernui" : 1
						}
,
						"classnamespace" : "box",
						"rect" : [ 1139.0, 250.0, 640.0, 480.0 ],
						"bglocked" : 0,
						"openinpresentation" : 0,
						"default_fontsize" : 12.0,
						"default_fontface" : 0,
						"default_fontname" : "Arial",
						"gridonopen" : 1,
						"gridsize" : [ 15.0, 15.0 ],
						"gridsnaponopen" : 1,
						"objectsnaponopen" : 1,
						"statusbarvisible" : 2,
						"toolbarvisible" : 1,
						"lefttoolbarpinned" : 0,
						"toptoolbarpinned" : 0,
						"righttoolbarpinned" : 0,
						"bottomtoolbarpinned" : 0,
						"toolbars_unpinned_last_save" : 0,
						"tallnewobj" : 0,
						"boxanimatetime" : 200,
						"enablehscroll" : 1,
						"enablevscroll" : 1,
						"devicewidth" : 0.0,
						"description" : "",
						"digest" : "",
						"tags" : "",
						"style" : "",
						"subpatcher_template" : "",
						"assistshowspatchername" : 0,
						"boxes" : [ 							{
								"box" : 								{
									"id" : "obj-13",
									"maxclass" : "newobj",
									"numinlets" : 2,
									"numoutlets" : 1,
									"outlettype" : [ "int" ],
									"patching_rect" : [ 240.0, 143.0, 33.0, 22.0 ],
									"text" : "== 0"
								}

							}
, 							{
								"box" : 								{
									"comment" : "",
									"id" : "obj-12",
									"index" : 3,
									"maxclass" : "inlet",
									"numinlets" : 0,
									"numoutlets" : 1,
									"outlettype" : [ "int" ],
									"patching_rect" : [ 240.0, 83.0, 30.0, 30.0 ]
								}

							}
, 							{
								"box" : 								{
									"comment" : "",
									"id" : "obj-11",
									"index" : 2,
									"maxclass" : "inlet",
									"numinlets" : 0,
									"numoutlets" : 1,
									"outlettype" : [ "signal" ],
									"patching_rect" : [ 173.0, 83.0, 30.0, 30.0 ]
								}

							}
, 							{
								"box" : 								{
									"comment" : "",
									"id" : "obj-10",
									"index" : 1,
									"maxclass" : "inlet",
									"numinlets" : 0,
									"numoutlets" : 1,
									"outlettype" : [ "signal" ],
									"patching_rect" : [ 122.0, 83.0, 30.0, 30.0 ]
								}

							}
, 							{
								"box" : 								{
									"id" : "obj-9",
									"maxclass" : "newobj",
									"numinlets" : 2,
									"numoutlets" : 1,
									"outlettype" : [ "multichannelsignal" ],
									"patching_rect" : [ 122.0, 143.0, 70.0, 22.0 ],
									"text" : "mc.pack~ 2"
								}

							}
, 							{
								"box" : 								{
									"comment" : "",
									"id" : "obj-8",
									"index" : 1,
									"maxclass" : "outlet",
									"numinlets" : 1,
									"numoutlets" : 0,
									"patching_rect" : [ 122.0, 287.0, 30.0, 30.0 ]
								}

							}
, 							{
								"box" : 								{
									"id" : "obj-6",
									"maxclass" : "newobj",
									"numinlets" : 3,
									"numoutlets" : 1,
									"outlettype" : [ "multichannelsignal" ],
									"patching_rect" : [ 122.0, 219.0, 84.0, 22.0 ],
									"text" : "mc.clip~ -1. 1."
								}

							}
, 							{
								"box" : 								{
									"id" : "obj-5",
									"maxclass" : "newobj",
									"numinlets" : 2,
									"numoutlets" : 1,
									"outlettype" : [ "multichannelsignal" ],
									"patching_rect" : [ 122.0, 180.0, 53.0, 22.0 ],
									"text" : "mc.*~ 1."
								}

							}
 ],
						"lines" : [ 							{
								"patchline" : 								{
									"destination" : [ "obj-9", 0 ],
									"source" : [ "obj-10", 0 ]
								}

							}
, 							{
								"patchline" : 								{
									"destination" : [ "obj-9", 1 ],
									"source" : [ "obj-11", 0 ]
								}

							}
, 							{
								"patchline" : 								{
									"destination" : [ "obj-13", 0 ],
									"source" : [ "obj-12", 0 ]
								}

							}
, 							{
								"patchline" : 								{
									"destination" : [ "obj-5", 1 ],
									"source" : [ "obj-13", 0 ]
								}

							}
, 							{
								"patchline" : 								{
									"destination" : [ "obj-6", 0 ],
									"source" : [ "obj-5", 0 ]
								}

							}
, 							{
								"patchline" : 								{
									"destination" : [ "obj-8", 0 ],
									"source" : [ "obj-6", 0 ]
								}

							}
, 							{
								"patchline" : 								{
									"destination" : [ "obj-5", 0 ],
									"source" : [ "obj-9", 0 ]
								}

							}
 ]
					}
,
					"patching_rect" : [ 600.5, 1290.0, 66.0, 22.0 ],
					"saved_object_attributes" : 					{
						"description" : "",
						"digest" : "",
						"globalpatchername" : "",
						"tags" : ""
					}
,
					"text" : "p ClipMute"
				}

			}
 ],
		"lines" : [ 			{
				"patchline" : 				{
					"destination" : [ "obj-12", 0 ],
					"midpoints" : [ 24.5, 675.0, 144.5, 675.0 ],
					"source" : [ "obj-1", 0 ]
				}

			}
, 			{
				"patchline" : 				{
					"destination" : [ "obj-71", 0 ],
					"source" : [ "obj-10", 0 ]
				}

			}
, 			{
				"patchline" : 				{
					"destination" : [ "obj-52", 0 ],
					"source" : [ "obj-100", 0 ]
				}

			}
, 			{
				"patchline" : 				{
					"destination" : [ "obj-15", 0 ],
					"source" : [ "obj-109", 0 ]
				}

			}
, 			{
				"patchline" : 				{
					"destination" : [ "obj-47", 0 ],
					"source" : [ "obj-110", 0 ]
				}

			}
, 			{
				"patchline" : 				{
					"destination" : [ "obj-58", 0 ],
					"source" : [ "obj-111", 0 ]
				}

			}
, 			{
				"patchline" : 				{
					"destination" : [ "obj-11", 0 ],
					"midpoints" : [ 247.5, 813.0, 1044.5, 813.0 ],
					"source" : [ "obj-12", 1 ]
				}

			}
, 			{
				"patchline" : 				{
					"destination" : [ "obj-13", 1 ],
					"midpoints" : [ 144.5, 822.0, 639.0, 822.0 ],
					"order" : 0,
					"source" : [ "obj-12", 0 ]
				}

			}
, 			{
				"patchline" : 				{
					"destination" : [ "obj-13", 0 ],
					"midpoints" : [ 144.5, 822.0, 610.0, 822.0 ],
					"order" : 1,
					"source" : [ "obj-12", 0 ]
				}

			}
, 			{
				"patchline" : 				{
					"destination" : [ "obj-7", 0 ],
					"midpoints" : [ 144.5, 714.0, 144.5, 714.0 ],
					"order" : 2,
					"source" : [ "obj-12", 0 ]
				}

			}
, 			{
				"patchline" : 				{
					"destination" : [ "obj-73", 0 ],
					"midpoints" : [ 350.5, 813.0, 1194.5, 813.0 ],
					"source" : [ "obj-12", 2 ]
				}

			}
, 			{
				"patchline" : 				{
					"destination" : [ "obj-9", 0 ],
					"midpoints" : [ 144.5, 822.0, 55.5, 822.0 ],
					"order" : 3,
					"source" : [ "obj-12", 0 ]
				}

			}
, 			{
				"patchline" : 				{
					"destination" : [ "obj-2", 1 ],
					"source" : [ "obj-13", 1 ]
				}

			}
, 			{
				"patchline" : 				{
					"destination" : [ "obj-2", 0 ],
					"source" : [ "obj-13", 0 ]
				}

			}
, 			{
				"patchline" : 				{
					"destination" : [ "obj-57", 0 ],
					"source" : [ "obj-132", 0 ]
				}

			}
, 			{
				"patchline" : 				{
					"destination" : [ "obj-5", 0 ],
					"source" : [ "obj-14", 0 ]
				}

			}
, 			{
				"patchline" : 				{
					"destination" : [ "obj-51", 0 ],
					"source" : [ "obj-15", 0 ]
				}

			}
, 			{
				"patchline" : 				{
					"destination" : [ "obj-44", 0 ],
					"source" : [ "obj-159", 0 ]
				}

			}
, 			{
				"patchline" : 				{
					"destination" : [ "obj-71", 0 ],
					"source" : [ "obj-16", 0 ]
				}

			}
, 			{
				"patchline" : 				{
					"destination" : [ "obj-43", 0 ],
					"source" : [ "obj-161", 0 ]
				}

			}
, 			{
				"patchline" : 				{
					"destination" : [ "obj-50", 0 ],
					"source" : [ "obj-162", 0 ]
				}

			}
, 			{
				"patchline" : 				{
					"destination" : [ "obj-69", 0 ],
					"source" : [ "obj-163", 0 ]
				}

			}
, 			{
				"patchline" : 				{
					"destination" : [ "obj-60", 0 ],
					"source" : [ "obj-164", 0 ]
				}

			}
, 			{
				"patchline" : 				{
					"destination" : [ "obj-59", 0 ],
					"source" : [ "obj-165", 0 ]
				}

			}
, 			{
				"patchline" : 				{
					"destination" : [ "obj-70", 0 ],
					"source" : [ "obj-166", 0 ]
				}

			}
, 			{
				"patchline" : 				{
					"destination" : [ "obj-66", 0 ],
					"source" : [ "obj-167", 0 ]
				}

			}
, 			{
				"patchline" : 				{
					"destination" : [ "obj-5", 0 ],
					"midpoints" : [ 1494.5, 567.0, 1494.5, 567.0 ],
					"source" : [ "obj-17", 0 ]
				}

			}
, 			{
				"patchline" : 				{
					"destination" : [ "obj-20", 0 ],
					"source" : [ "obj-18", 0 ]
				}

			}
, 			{
				"patchline" : 				{
					"destination" : [ "obj-12", 0 ],
					"midpoints" : [ 519.5, 263.983041048049927, 144.5, 263.983041048049927 ],
					"source" : [ "obj-19", 0 ]
				}

			}
, 			{
				"patchline" : 				{
					"destination" : [ "obj-4", 0 ],
					"source" : [ "obj-2", 0 ]
				}

			}
, 			{
				"patchline" : 				{
					"destination" : [ "obj-16", 0 ],
					"source" : [ "obj-20", 0 ]
				}

			}
, 			{
				"patchline" : 				{
					"destination" : [ "obj-28", 0 ],
					"source" : [ "obj-22", 0 ]
				}

			}
, 			{
				"patchline" : 				{
					"destination" : [ "obj-40", 0 ],
					"source" : [ "obj-24", 0 ]
				}

			}
, 			{
				"patchline" : 				{
					"destination" : [ "obj-41", 0 ],
					"source" : [ "obj-26", 0 ]
				}

			}
, 			{
				"patchline" : 				{
					"destination" : [ "obj-46", 0 ],
					"source" : [ "obj-27", 0 ]
				}

			}
, 			{
				"patchline" : 				{
					"destination" : [ "obj-54", 0 ],
					"source" : [ "obj-28", 0 ]
				}

			}
, 			{
				"patchline" : 				{
					"destination" : [ "obj-38", 0 ],
					"source" : [ "obj-29", 0 ]
				}

			}
, 			{
				"patchline" : 				{
					"destination" : [ "obj-42", 0 ],
					"source" : [ "obj-38", 0 ]
				}

			}
, 			{
				"patchline" : 				{
					"destination" : [ "obj-21", 0 ],
					"source" : [ "obj-4", 0 ]
				}

			}
, 			{
				"patchline" : 				{
					"destination" : [ "obj-42", 0 ],
					"source" : [ "obj-40", 0 ]
				}

			}
, 			{
				"patchline" : 				{
					"destination" : [ "obj-42", 0 ],
					"source" : [ "obj-41", 0 ]
				}

			}
, 			{
				"patchline" : 				{
					"destination" : [ "obj-12", 0 ],
					"midpoints" : [ 264.584751844406128, 675.0, 144.5, 675.0 ],
					"source" : [ "obj-42", 0 ]
				}

			}
, 			{
				"patchline" : 				{
					"destination" : [ "obj-49", 0 ],
					"source" : [ "obj-43", 0 ]
				}

			}
, 			{
				"patchline" : 				{
					"destination" : [ "obj-49", 0 ],
					"source" : [ "obj-44", 0 ]
				}

			}
, 			{
				"patchline" : 				{
					"destination" : [ "obj-49", 0 ],
					"source" : [ "obj-45", 0 ]
				}

			}
, 			{
				"patchline" : 				{
					"destination" : [ "obj-49", 0 ],
					"source" : [ "obj-46", 0 ]
				}

			}
, 			{
				"patchline" : 				{
					"destination" : [ "obj-49", 0 ],
					"source" : [ "obj-47", 0 ]
				}

			}
, 			{
				"patchline" : 				{
					"destination" : [ "obj-12", 0 ],
					"midpoints" : [ 587.5, 675.0, 144.5, 675.0 ],
					"source" : [ "obj-49", 0 ]
				}

			}
, 			{
				"patchline" : 				{
					"destination" : [ "obj-10", 0 ],
					"source" : [ "obj-5", 0 ]
				}

			}
, 			{
				"patchline" : 				{
					"destination" : [ "obj-12", 0 ],
					"midpoints" : [ 369.669500112533569, 675.0, 144.5, 675.0 ],
					"source" : [ "obj-50", 0 ]
				}

			}
, 			{
				"patchline" : 				{
					"destination" : [ "obj-54", 0 ],
					"source" : [ "obj-51", 0 ]
				}

			}
, 			{
				"patchline" : 				{
					"destination" : [ "obj-54", 0 ],
					"source" : [ "obj-52", 0 ]
				}

			}
, 			{
				"patchline" : 				{
					"destination" : [ "obj-54", 0 ],
					"source" : [ "obj-53", 0 ]
				}

			}
, 			{
				"patchline" : 				{
					"destination" : [ "obj-12", 0 ],
					"midpoints" : [ 674.5, 675.0, 144.5, 675.0 ],
					"source" : [ "obj-54", 0 ]
				}

			}
, 			{
				"patchline" : 				{
					"destination" : [ "obj-62", 0 ],
					"source" : [ "obj-55", 0 ]
				}

			}
, 			{
				"patchline" : 				{
					"destination" : [ "obj-12", 0 ],
					"midpoints" : [ 1029.5, 476.830729007720947, 485.0, 476.830729007720947, 485.0, 675.0, 144.5, 675.0 ],
					"source" : [ "obj-56", 0 ]
				}

			}
, 			{
				"patchline" : 				{
					"destination" : [ "obj-56", 0 ],
					"source" : [ "obj-57", 0 ]
				}

			}
, 			{
				"patchline" : 				{
					"destination" : [ "obj-56", 0 ],
					"source" : [ "obj-58", 0 ]
				}

			}
, 			{
				"patchline" : 				{
					"destination" : [ "obj-71", 0 ],
					"source" : [ "obj-59", 0 ]
				}

			}
, 			{
				"patchline" : 				{
					"destination" : [ "obj-2", 2 ],
					"source" : [ "obj-6", 0 ]
				}

			}
, 			{
				"patchline" : 				{
					"destination" : [ "obj-71", 0 ],
					"source" : [ "obj-60", 0 ]
				}

			}
, 			{
				"patchline" : 				{
					"destination" : [ "obj-71", 0 ],
					"source" : [ "obj-61", 0 ]
				}

			}
, 			{
				"patchline" : 				{
					"destination" : [ "obj-71", 0 ],
					"source" : [ "obj-62", 0 ]
				}

			}
, 			{
				"patchline" : 				{
					"destination" : [ "obj-71", 0 ],
					"source" : [ "obj-63", 0 ]
				}

			}
, 			{
				"patchline" : 				{
					"destination" : [ "obj-71", 0 ],
					"source" : [ "obj-64", 0 ]
				}

			}
, 			{
				"patchline" : 				{
					"destination" : [ "obj-61", 0 ],
					"source" : [ "obj-65", 0 ]
				}

			}
, 			{
				"patchline" : 				{
					"destination" : [ "obj-71", 0 ],
					"source" : [ "obj-66", 0 ]
				}

			}
, 			{
				"patchline" : 				{
					"destination" : [ "obj-63", 0 ],
					"source" : [ "obj-67", 0 ]
				}

			}
, 			{
				"patchline" : 				{
					"destination" : [ "obj-64", 0 ],
					"source" : [ "obj-68", 0 ]
				}

			}
, 			{
				"patchline" : 				{
					"destination" : [ "obj-71", 0 ],
					"source" : [ "obj-69", 0 ]
				}

			}
, 			{
				"patchline" : 				{
					"destination" : [ "obj-12", 0 ],
					"midpoints" : [ 684.5, 789.0, 387.0, 789.0, 387.0, 675.0, 144.5, 675.0 ],
					"source" : [ "obj-70", 0 ]
				}

			}
, 			{
				"patchline" : 				{
					"destination" : [ "obj-12", 0 ],
					"midpoints" : [ 1025.444444444444343, 765.0, 794.016948223114014, 765.0, 794.016948223114014, 675.0, 144.5, 675.0 ],
					"source" : [ "obj-71", 0 ]
				}

			}
, 			{
				"patchline" : 				{
					"destination" : [ "obj-45", 0 ],
					"source" : [ "obj-83", 0 ]
				}

			}
, 			{
				"patchline" : 				{
					"destination" : [ "obj-3", 0 ],
					"source" : [ "obj-9", 0 ]
				}

			}
, 			{
				"patchline" : 				{
					"destination" : [ "obj-53", 0 ],
					"source" : [ "obj-99", 0 ]
				}

			}
 ],
		"parameters" : 		{
			"obj-100" : [ "live.dial[59]", "Mid", 0 ],
			"obj-109" : [ "live.dial[60]", "Low", 0 ],
			"obj-110" : [ "live.dial[61]", "Post gain", 0 ],
			"obj-111" : [ "live.dial[13]", "Presence", 0 ],
			"obj-12::obj-13" : [ "live.dial[7]", "F Bass", 0 ],
			"obj-12::obj-14" : [ "live.dial[39]", "Release", 0 ],
			"obj-12::obj-15" : [ "live.dial[8]", "F Lo Mid", 0 ],
			"obj-12::obj-20" : [ "live.dial[40]", "Attack", 0 ],
			"obj-12::obj-41" : [ "live.dial[15]", "Bass", 0 ],
			"obj-12::obj-42" : [ "live.dial[16]", "Hi Mid", 0 ],
			"obj-12::obj-43" : [ "live.dial[26]", "High", 0 ],
			"obj-12::obj-51" : [ "volumeCompensation[1]", "VolComp", 0 ],
			"obj-12::obj-54" : [ "live.dial[24]", "Master", 0 ],
			"obj-12::obj-81" : [ "live.dial[9]", "Lo Mid", 0 ],
			"obj-12::obj-82" : [ "live.dial[25]", "F Hi Mid", 0 ],
			"obj-12::obj-83" : [ "live.tab", "live.tab", 0 ],
			"obj-12::obj-88" : [ "live.dial[45]", "F High", 0 ],
			"obj-13" : [ "live.gain~[1]", "live.gain~", 0 ],
			"obj-132" : [ "live.dial[14]", "Reson", 0 ],
			"obj-159" : [ "live.dial[17]", "input filter", 0 ],
			"obj-161" : [ "live.dial[37]", "Pre gain", 0 ],
			"obj-162" : [ "live.dial[38]", "Gate Thresh", 0 ],
			"obj-164" : [ "live.dial[62]", "IR2 delay", 0 ],
			"obj-165" : [ "live.dial[63]", "IR1 delay", 0 ],
			"obj-166" : [ "live.dial[64]", "Master", 0 ],
			"obj-167" : [ "live.dial[65]", "IR Blend", 0 ],
			"obj-24" : [ "live.dial[56]", "Tight", 0 ],
			"obj-26" : [ "live.dial[57]", "Bite", 0 ],
			"obj-27" : [ "live.dial[46]", "Bias", 0 ],
			"obj-29" : [ "live.dial[58]", "Boost", 0 ],
			"obj-4" : [ "mc.live.gain~[1]", "MasterVol", 0 ],
			"obj-83" : [ "live.tab[1]", "live.tab", 0 ],
			"obj-99" : [ "live.dial[52]", "Trebble", 0 ],
			"parameterbanks" : 			{
				"0" : 				{
					"index" : 0,
					"name" : "",
					"parameters" : [ "-", "-", "-", "-", "-", "-", "-", "-" ]
				}

			}
,
			"parameter_overrides" : 			{
				"obj-100" : 				{
					"parameter_longname" : "live.dial[59]"
				}
,
				"obj-109" : 				{
					"parameter_longname" : "live.dial[60]"
				}
,
				"obj-110" : 				{
					"parameter_longname" : "live.dial[61]"
				}
,
				"obj-111" : 				{
					"parameter_longname" : "live.dial[13]"
				}
,
				"obj-132" : 				{
					"parameter_longname" : "live.dial[14]"
				}
,
				"obj-159" : 				{
					"parameter_longname" : "live.dial[17]"
				}
,
				"obj-161" : 				{
					"parameter_longname" : "live.dial[37]"
				}
,
				"obj-162" : 				{
					"parameter_longname" : "live.dial[38]"
				}
,
				"obj-164" : 				{
					"parameter_longname" : "live.dial[62]"
				}
,
				"obj-165" : 				{
					"parameter_longname" : "live.dial[63]"
				}
,
				"obj-166" : 				{
					"parameter_longname" : "live.dial[64]"
				}
,
				"obj-167" : 				{
					"parameter_longname" : "live.dial[65]"
				}
,
				"obj-24" : 				{
					"parameter_longname" : "live.dial[56]"
				}
,
				"obj-26" : 				{
					"parameter_longname" : "live.dial[57]"
				}
,
				"obj-29" : 				{
					"parameter_longname" : "live.dial[58]"
				}
,
				"obj-99" : 				{
					"parameter_longname" : "live.dial[52]"
				}

			}
,
			"inherited_shortname" : 1
		}
,
		"dependency_cache" : [ 			{
				"name" : "IRloader.maxpat",
				"bootpath" : "~/Documents/Max 8/Projects/AmpModelerMax/patchers",
				"patcherrelativepath" : ".",
				"type" : "JSON",
				"implicit" : 1
			}
, 			{
				"name" : "Metallica.wav",
				"bootpath" : "~/Documents/Max 8/Projects/AmpModelerMax/media",
				"patcherrelativepath" : "../media",
				"type" : "WAVE",
				"implicit" : 1
			}
, 			{
				"name" : "Opeth.wav",
				"bootpath" : "~/Documents/Max 8/Projects/AmpModelerMax/media",
				"patcherrelativepath" : "../media",
				"type" : "WAVE",
				"implicit" : 1
			}
, 			{
				"name" : "SulphurAeon.wav",
				"bootpath" : "~/Documents/Max 8/Projects/AmpModelerMax/media",
				"patcherrelativepath" : "../media",
				"type" : "WAVE",
				"implicit" : 1
			}
, 			{
				"name" : "Vektor.wav",
				"bootpath" : "~/Documents/Max 8/Projects/AmpModelerMax/media",
				"patcherrelativepath" : "../media",
				"type" : "WAVE",
				"implicit" : 1
			}
, 			{
				"name" : "ampli.maxpat",
				"bootpath" : "~/Documents/Max 8/Projects/AmpModelerMax/patchers",
				"patcherrelativepath" : ".",
				"type" : "JSON",
				"implicit" : 1
			}
, 			{
				"name" : "cleanBoost.maxpat",
				"bootpath" : "~/Documents/Max 8/Projects/AmpModelerMax/patchers",
				"patcherrelativepath" : ".",
				"type" : "JSON",
				"implicit" : 1
			}
, 			{
				"name" : "clip.gendsp",
				"bootpath" : "~/Documents/Max 8/Projects/AmpModelerMax/code",
				"patcherrelativepath" : "../code",
				"type" : "gDSP",
				"implicit" : 1
			}
, 			{
				"name" : "gainStages.maxpat",
				"bootpath" : "~/Documents/Max 8/Projects/AmpModelerMax/patchers",
				"patcherrelativepath" : ".",
				"type" : "JSON",
				"implicit" : 1
			}
, 			{
				"name" : "guitarInput.maxpat",
				"bootpath" : "~/Documents/Max 8/Projects/AmpModelerMax/patchers",
				"patcherrelativepath" : ".",
				"type" : "JSON",
				"implicit" : 1
			}
, 			{
				"name" : "multiconvolve~.mxe64",
				"type" : "mx64"
			}
, 			{
				"name" : "noiseGate.maxpat",
				"bootpath" : "~/Documents/Max 8/Projects/AmpModelerMax/patchers",
				"patcherrelativepath" : ".",
				"type" : "JSON",
				"implicit" : 1
			}
, 			{
				"name" : "spectrumdraw~.mxe64",
				"type" : "mx64"
			}
, 			{
				"name" : "toneStack.gendsp",
				"bootpath" : "~/Documents/Max 8/Projects/AmpModelerMax/code",
				"patcherrelativepath" : "../code",
				"type" : "gDSP",
				"implicit" : 1
			}
 ],
		"autosave" : 0,
		"boxgroups" : [ 			{
				"boxes" : [ "obj-13", "obj-2", "obj-4", "obj-6", "obj-8" ]
			}
 ],
		"styles" : [ 			{
				"name" : "Audiomix",
				"default" : 				{
					"bgfillcolor" : 					{
						"angle" : 270.0,
						"color" : [ 0.290196, 0.309804, 0.301961, 1.0 ],
						"color1" : [ 0.376471, 0.384314, 0.4, 1.0 ],
						"color2" : [ 0.290196, 0.309804, 0.301961, 1.0 ],
						"proportion" : 0.39,
						"type" : "gradient"
					}

				}
,
				"parentstyle" : "",
				"multi" : 0
			}
, 			{
				"name" : "rnbohighcontrast",
				"default" : 				{
					"accentcolor" : [ 0.666666666666667, 0.666666666666667, 0.666666666666667, 1.0 ],
					"bgcolor" : [ 0.0, 0.0, 0.0, 1.0 ],
					"bgfillcolor" : 					{
						"angle" : 270.0,
						"autogradient" : 0.0,
						"color" : [ 0.0, 0.0, 0.0, 1.0 ],
						"color1" : [ 0.090196078431373, 0.090196078431373, 0.090196078431373, 1.0 ],
						"color2" : [ 0.156862745098039, 0.168627450980392, 0.164705882352941, 1.0 ],
						"proportion" : 0.5,
						"type" : "color"
					}
,
					"clearcolor" : [ 1.0, 1.0, 1.0, 0.0 ],
					"color" : [ 1.0, 0.874509803921569, 0.141176470588235, 1.0 ],
					"editing_bgcolor" : [ 0.258823529411765, 0.258823529411765, 0.258823529411765, 1.0 ],
					"elementcolor" : [ 0.223386004567146, 0.254748553037643, 0.998085916042328, 1.0 ],
					"fontsize" : [ 13.0 ],
					"locked_bgcolor" : [ 0.258823529411765, 0.258823529411765, 0.258823529411765, 1.0 ],
					"selectioncolor" : [ 0.301960784313725, 0.694117647058824, 0.949019607843137, 1.0 ],
					"stripecolor" : [ 0.258823529411765, 0.258823529411765, 0.258823529411765, 1.0 ],
					"textcolor" : [ 1.0, 1.0, 1.0, 1.0 ],
					"textcolor_inverse" : [ 1.0, 1.0, 1.0, 1.0 ]
				}
,
				"parentstyle" : "",
				"multi" : 0
			}
, 			{
				"name" : "rnbolight",
				"default" : 				{
					"accentcolor" : [ 0.443137254901961, 0.505882352941176, 0.556862745098039, 1.0 ],
					"bgcolor" : [ 0.796078431372549, 0.862745098039216, 0.925490196078431, 1.0 ],
					"bgfillcolor" : 					{
						"angle" : 270.0,
						"autogradient" : 0.0,
						"color" : [ 0.835294117647059, 0.901960784313726, 0.964705882352941, 1.0 ],
						"color1" : [ 0.031372549019608, 0.125490196078431, 0.211764705882353, 1.0 ],
						"color2" : [ 0.263682, 0.004541, 0.038797, 1.0 ],
						"proportion" : 0.39,
						"type" : "color"
					}
,
					"clearcolor" : [ 0.898039, 0.898039, 0.898039, 1.0 ],
					"color" : [ 0.815686274509804, 0.509803921568627, 0.262745098039216, 1.0 ],
					"editing_bgcolor" : [ 0.898039, 0.898039, 0.898039, 1.0 ],
					"elementcolor" : [ 0.337254901960784, 0.384313725490196, 0.462745098039216, 1.0 ],
					"fontname" : [ "Lato" ],
					"locked_bgcolor" : [ 0.898039, 0.898039, 0.898039, 1.0 ],
					"stripecolor" : [ 0.309803921568627, 0.698039215686274, 0.764705882352941, 1.0 ],
					"textcolor_inverse" : [ 0.0, 0.0, 0.0, 1.0 ]
				}
,
				"parentstyle" : "",
				"multi" : 0
			}
, 			{
				"name" : "rnbomonokai",
				"default" : 				{
					"accentcolor" : [ 0.501960784313725, 0.501960784313725, 0.501960784313725, 1.0 ],
					"bgcolor" : [ 0.0, 0.0, 0.0, 1.0 ],
					"bgfillcolor" : 					{
						"angle" : 270.0,
						"autogradient" : 0.0,
						"color" : [ 0.0, 0.0, 0.0, 1.0 ],
						"color1" : [ 0.031372549019608, 0.125490196078431, 0.211764705882353, 1.0 ],
						"color2" : [ 0.263682, 0.004541, 0.038797, 1.0 ],
						"proportion" : 0.39,
						"type" : "color"
					}
,
					"clearcolor" : [ 0.976470588235294, 0.96078431372549, 0.917647058823529, 1.0 ],
					"color" : [ 0.611764705882353, 0.125490196078431, 0.776470588235294, 1.0 ],
					"editing_bgcolor" : [ 0.976470588235294, 0.96078431372549, 0.917647058823529, 1.0 ],
					"elementcolor" : [ 0.749019607843137, 0.83921568627451, 1.0, 1.0 ],
					"fontname" : [ "Lato" ],
					"locked_bgcolor" : [ 0.976470588235294, 0.96078431372549, 0.917647058823529, 1.0 ],
					"stripecolor" : [ 0.796078431372549, 0.207843137254902, 1.0, 1.0 ],
					"textcolor" : [ 0.129412, 0.129412, 0.129412, 1.0 ]
				}
,
				"parentstyle" : "",
				"multi" : 0
			}
 ],
		"toolbaradditions" : [ "audiomute", "audiosolo" ],
		"toolbarexclusions" : [ "browsevizzie", "browser_images", "browser_video" ]
	}

}
